<mxfile host="app.diagrams.net" modified="2022-11-08T10:12:08.239Z" agent="5.0 (Windows NT 10.0; Win64; x64) AppleWebKit/537.36 (KHTML, like Gecko) Chrome/107.0.0.0 Safari/537.36" etag="6N6tBQ5MCAI6Pv1Prds9" version="20.5.3" type="github">
  <diagram name="Page-1" id="c37626ed-c26b-45fb-9056-f9ebc6bb27b6">
    <mxGraphModel dx="4231" dy="1306" grid="1" gridSize="10" guides="1" tooltips="1" connect="1" arrows="1" fold="1" page="1" pageScale="1" pageWidth="1100" pageHeight="850" background="none" math="0" shadow="0">
      <root>
        <mxCell id="0" />
        <mxCell id="1" parent="0" />
        <mxCell id="ElSGJATNwQoisyCJem0D-2" value="&lt;br&gt;" style="whiteSpace=wrap;html=1;rounded=0;shadow=0;comic=0;strokeWidth=1;fontFamily=Verdana;fontSize=14;fillColor=#f5f5f5;strokeColor=none;fontStyle=1;verticalAlign=top;" vertex="1" parent="1">
          <mxGeometry x="-770" y="880" width="384" height="320" as="geometry" />
        </mxCell>
        <mxCell id="ElSGJATNwQoisyCJem0D-4" value="PRODUCTION" style="whiteSpace=wrap;html=1;rounded=0;shadow=0;comic=0;strokeWidth=1;fontFamily=Verdana;fontSize=14;fillColor=#f5f5f5;strokeColor=none;fontStyle=1;verticalAlign=top;" vertex="1" parent="1">
          <mxGeometry x="-260" y="874.5" width="384" height="375.5" as="geometry" />
        </mxCell>
        <mxCell id="ElSGJATNwQoisyCJem0D-5" value="IMPRIMANTES" style="points=[[0.22,0.185,0],[0.5,0,0],[0.78,0.185,0],[0.975,0.49,0],[1,0.73,0],[0.975,0.97,0],[0.5,1,0],[0.025,0.97,0],[0,0.73,0],[0.025,0.49,0]];verticalLabelPosition=bottom;sketch=0;html=1;verticalAlign=top;aspect=fixed;align=center;pointerEvents=1;shape=mxgraph.cisco19.printer;fillColor=#008DC9;strokeColor=none;" vertex="1" parent="1">
          <mxGeometry x="-207.98" y="917" width="88.89" height="80" as="geometry" />
        </mxCell>
        <mxCell id="ElSGJATNwQoisyCJem0D-6" value="PC PRESTATION" style="points=[[0.13,0.02,0],[0.5,0,0],[0.87,0.02,0],[0.885,0.4,0],[0.985,0.985,0],[0.5,1,0],[0.015,0.985,0],[0.115,0.4,0]];verticalLabelPosition=bottom;sketch=0;html=1;verticalAlign=top;aspect=fixed;align=center;pointerEvents=1;shape=mxgraph.cisco19.laptop;fillColor=#0091D1;strokeColor=none;" vertex="1" parent="1">
          <mxGeometry x="-16.909999999999968" y="925.5" width="90" height="63" as="geometry" />
        </mxCell>
        <mxCell id="ElSGJATNwQoisyCJem0D-12" style="edgeStyle=orthogonalEdgeStyle;rounded=0;orthogonalLoop=1;jettySize=auto;html=1;exitX=1;exitY=0.65;exitDx=0;exitDy=0;exitPerimeter=0;fillColor=#dae8fc;strokeColor=#05800D;strokeWidth=3;" edge="1" parent="1" source="ElSGJATNwQoisyCJem0D-7" target="ElSGJATNwQoisyCJem0D-10">
          <mxGeometry relative="1" as="geometry" />
        </mxCell>
        <mxCell id="ElSGJATNwQoisyCJem0D-7" value="WAN FIBRE ORANGE&lt;br&gt;TELEPHONIE" style="points=[[0,0.64,0],[0.2,0.15,0],[0.4,0.01,0],[0.79,0.25,0],[1,0.65,0],[0.8,0.86,0],[0.41,1,0],[0.16,0.86,0]];verticalLabelPosition=bottom;sketch=0;html=1;verticalAlign=top;aspect=fixed;align=center;pointerEvents=1;shape=mxgraph.cisco19.cloud;fillColor=#000000;strokeColor=none;strokeWidth=293;perimeterSpacing=6;shadow=0;fillStyle=auto;" vertex="1" parent="1">
          <mxGeometry x="-1020" y="410" width="183.33" height="110" as="geometry" />
        </mxCell>
        <mxCell id="ElSGJATNwQoisyCJem0D-11" style="edgeStyle=orthogonalEdgeStyle;rounded=0;orthogonalLoop=1;jettySize=auto;html=1;exitX=0;exitY=0.64;exitDx=0;exitDy=0;exitPerimeter=0;fillColor=#dae8fc;strokeColor=#6c8ebf;strokeWidth=3;" edge="1" parent="1" source="ElSGJATNwQoisyCJem0D-8" target="ElSGJATNwQoisyCJem0D-10">
          <mxGeometry relative="1" as="geometry" />
        </mxCell>
        <mxCell id="ElSGJATNwQoisyCJem0D-8" value="WAN FIBRE ORANGE 2&lt;br&gt;INTERNET" style="points=[[0,0.64,0],[0.2,0.15,0],[0.4,0.01,0],[0.79,0.25,0],[1,0.65,0],[0.8,0.86,0],[0.41,1,0],[0.16,0.86,0]];verticalLabelPosition=bottom;sketch=0;html=1;verticalAlign=top;aspect=fixed;align=center;pointerEvents=1;shape=mxgraph.cisco19.cloud;strokeWidth=293;perimeterSpacing=6;shadow=0;fillStyle=auto;fillColor=#000000;fontColor=#333333;strokeColor=#666666;" vertex="1" parent="1">
          <mxGeometry x="-59.41000000000001" y="412.5" width="175" height="105" as="geometry" />
        </mxCell>
        <mxCell id="ElSGJATNwQoisyCJem0D-15" style="edgeStyle=orthogonalEdgeStyle;rounded=0;orthogonalLoop=1;jettySize=auto;html=1;fillColor=#dae8fc;strokeColor=#6c8ebf;strokeWidth=3;" edge="1" parent="1" source="ElSGJATNwQoisyCJem0D-10" target="ElSGJATNwQoisyCJem0D-14">
          <mxGeometry relative="1" as="geometry" />
        </mxCell>
        <mxCell id="ElSGJATNwQoisyCJem0D-16" style="edgeStyle=orthogonalEdgeStyle;rounded=0;orthogonalLoop=1;jettySize=auto;html=1;fillColor=#dae8fc;strokeColor=#6c8ebf;strokeWidth=3;" edge="1" parent="1" source="ElSGJATNwQoisyCJem0D-10" target="ElSGJATNwQoisyCJem0D-13">
          <mxGeometry relative="1" as="geometry" />
        </mxCell>
        <mxCell id="ElSGJATNwQoisyCJem0D-10" value="FORTIGATE&lt;br&gt;192.168.0.1&lt;br&gt;" style="aspect=fixed;html=1;points=[];align=center;image;fontSize=12;image=img/lib/azure2/networking/Azure_Firewall_Manager.svg;shadow=0;sketch=0;fillStyle=auto;strokeColor=default;strokeWidth=293;fillColor=#000000;" vertex="1" parent="1">
          <mxGeometry x="-641.58" y="553.5" width="127.17" height="109" as="geometry" />
        </mxCell>
        <mxCell id="ElSGJATNwQoisyCJem0D-13" value="192.168.2.0/24" style="aspect=fixed;html=1;points=[];align=center;image;fontSize=12;image=img/lib/azure2/networking/Virtual_Networks_Classic.svg;shadow=0;sketch=0;fillStyle=auto;strokeColor=default;strokeWidth=293;fillColor=#000000;" vertex="1" parent="1">
          <mxGeometry x="-629.09" y="795" width="102.18" height="61" as="geometry" />
        </mxCell>
        <mxCell id="ElSGJATNwQoisyCJem0D-14" value="192.168.1.0/24" style="aspect=fixed;html=1;points=[];align=center;image;fontSize=12;image=img/lib/azure2/networking/Virtual_Networks_Classic.svg;shadow=0;sketch=0;fillStyle=auto;strokeColor=default;strokeWidth=293;fillColor=#000000;" vertex="1" parent="1">
          <mxGeometry x="-119.09000000000003" y="789" width="102.18" height="61" as="geometry" />
        </mxCell>
        <mxCell id="ElSGJATNwQoisyCJem0D-23" style="edgeStyle=orthogonalEdgeStyle;rounded=0;orthogonalLoop=1;jettySize=auto;html=1;strokeColor=#068F0F;strokeWidth=3;" edge="1" parent="1" source="ElSGJATNwQoisyCJem0D-17" target="ElSGJATNwQoisyCJem0D-22">
          <mxGeometry relative="1" as="geometry" />
        </mxCell>
        <mxCell id="ElSGJATNwQoisyCJem0D-17" value="" style="aspect=fixed;html=1;points=[];align=center;image;fontSize=12;image=img/lib/azure2/networking/Virtual_Router.svg;shadow=0;sketch=0;fillStyle=auto;strokeColor=default;strokeWidth=293;fillColor=#000000;" vertex="1" parent="1">
          <mxGeometry x="-670" y="581" width="54" height="54" as="geometry" />
        </mxCell>
        <mxCell id="ElSGJATNwQoisyCJem0D-18" value="SERVEURS&lt;br&gt;PROCESSEURS&lt;br&gt;LIBRAIRIE&lt;br&gt;PROJECTEURS" style="sketch=0;points=[[0.015,0.015,0],[0.985,0.015,0],[0.985,0.985,0],[0.015,0.985,0],[0.25,0,0],[0.5,0,0],[0.75,0,0],[1,0.25,0],[1,0.5,0],[1,0.75,0],[0.75,1,0],[0.5,1,0],[0.25,1,0],[0,0.75,0],[0,0.5,0],[0,0.25,0]];verticalLabelPosition=bottom;html=1;verticalAlign=top;aspect=fixed;align=center;pointerEvents=1;shape=mxgraph.cisco19.server;fillColor=#007EB5;strokeColor=none;shadow=0;fillStyle=auto;strokeWidth=293;" vertex="1" parent="1">
          <mxGeometry x="-193.78" y="1060" width="60.5" height="110" as="geometry" />
        </mxCell>
        <mxCell id="ElSGJATNwQoisyCJem0D-19" value="IMPRIMANTES" style="points=[[0.22,0.185,0],[0.5,0,0],[0.78,0.185,0],[0.975,0.49,0],[1,0.73,0],[0.975,0.97,0],[0.5,1,0],[0.025,0.97,0],[0,0.73,0],[0.025,0.49,0]];verticalLabelPosition=bottom;sketch=0;html=1;verticalAlign=top;aspect=fixed;align=center;pointerEvents=1;shape=mxgraph.cisco19.printer;fillColor=#008DC9;strokeColor=none;" vertex="1" parent="1">
          <mxGeometry x="-622.44" y="908.5" width="88.89" height="80" as="geometry" />
        </mxCell>
        <mxCell id="ElSGJATNwQoisyCJem0D-20" value="PC&amp;nbsp; COMPTA&lt;br&gt;PC COLLABORATEURS" style="points=[[0.02,0.015,0],[0.5,0,0],[0.98,0.015,0],[1,0.38,0],[0.895,0.98,0],[0.5,1,0],[0.105,0.98,0],[0,0.38,0]];verticalLabelPosition=bottom;sketch=0;html=1;verticalAlign=top;aspect=fixed;align=center;pointerEvents=1;shape=mxgraph.cisco19.secure_endpoint_pc;fillColor=#0083BD;strokeColor=none;shadow=0;fillStyle=auto;strokeWidth=293;" vertex="1" parent="1">
          <mxGeometry x="-627.64" y="1026" width="99.27" height="79.41" as="geometry" />
        </mxCell>
        <mxCell id="ElSGJATNwQoisyCJem0D-21" value="TÉLÉPHONIE" style="whiteSpace=wrap;html=1;rounded=0;shadow=0;comic=0;strokeWidth=1;fontFamily=Verdana;fontSize=14;fillColor=#f5f5f5;strokeColor=none;fontStyle=1;verticalAlign=top;" vertex="1" parent="1">
          <mxGeometry x="-1290" y="874.5" width="394" height="245.5" as="geometry" />
        </mxCell>
        <mxCell id="ElSGJATNwQoisyCJem0D-22" value="192.168.3.0/24" style="aspect=fixed;html=1;points=[];align=center;image;fontSize=12;image=img/lib/azure2/networking/Virtual_Networks_Classic.svg;shadow=0;sketch=0;fillStyle=auto;strokeColor=default;strokeWidth=293;fillColor=#000000;" vertex="1" parent="1">
          <mxGeometry x="-1144.0900000000001" y="789" width="102.18" height="61" as="geometry" />
        </mxCell>
      </root>
    </mxGraphModel>
  </diagram>
</mxfile>
